# xmcd
# 
# Track frame offsets:
#     150
#     23827
#     47102
#     64577
#     92740
#     115290
#     132390
#     151137
# 
# Disc length: 2507
# 
# Revision: 2
# Processed by: cddbd v1.5.2PL0 Copyright (c) Steve Scherf et al.
# Submitted via: fre:ac v1.1beta1pre4
# 
DISCID=6309c908
DTITLE=Dzem - Czerwony Jak Cegla
DYEAR=1985
DGENRE=blues
TTITLE0=Czerwony Jak Cegla
TTITLE1=Whisky
TTITLE2=Nieudany Skok
TTITLE3=Ballada O Dziwnym Malarzu
TTITLE4=Jesiony
TTITLE5=Powial Boczny Wiatr
TTITLE6=Kim Jestem - Jestem Sobie
TTITLE7=Oh, Slodka
EXTD=
EXTT0=
EXTT1=
EXTT2=
EXTT3=
EXTT4=
EXTT5=
EXTT6=
EXTT7=
PLAYORDER=
